<?xml version="1.0" standalone="no"?>
<!DOCTYPE svg PUBLIC "-//W3C//DTD SVG 20010904//EN"
 "http://www.w3.org/TR/2001/REC-SVG-20010904/DTD/svg10.dtd">
<svg version="1.0" xmlns="http://www.w3.org/2000/svg"
 width="1000.000000pt" height="1000.000000pt" viewBox="0 0 1000.000000 1000.000000"
 preserveAspectRatio="xMidYMid meet">
<metadata>
Created by potrace 1.14, written by Peter Selinger 2001-2017
</metadata>
<g transform="translate(0.000000,1000.000000) scale(0.100000,-0.100000)"
fill="#000000" stroke="none">
<path d="M832 9519 c-188 -37 -329 -213 -368 -459 -4 -25 -8 -1845 -8 -4045
-2 -4042 -1 -4093 32 -4200 16 -52 59 -129 102 -184 65 -82 143 -127 275 -157
34 -8 8107 -7 8176 1 89 10 214 52 278 93 209 132 266 381 150 652 -19 46 -62
127 -99 190 -14 23 -212 368 -238 414 -13 22 -35 58 -48 78 -13 21 -24 40 -24
43 0 2 -18 34 -40 69 -21 36 -51 86 -65 113 -14 26 -36 66 -49 88 -13 22 -58
99 -99 170 l-76 130 47 13 c96 26 191 64 253 100 72 41 177 142 204 193 88
173 69 358 -58 549 -16 25 -270 286 -564 581 -542 543 -542 544 -493 561 32
12 142 102 196 161 57 64 118 175 129 237 27 147 -19 294 -132 420 -74 82
-180 156 -393 273 -30 17 -83 48 -118 69 -34 21 -65 38 -68 38 -3 0 -30 16
-60 35 -30 19 -56 35 -58 35 -2 0 -50 27 -105 60 -56 33 -103 60 -106 60 -3 0
-33 17 -67 38 -35 21 -187 110 -338 197 -456 262 -535 308 -545 324 -5 9 -23
38 -39 66 -15 27 -104 181 -196 340 -92 160 -177 306 -188 325 -30 54 -152
263 -162 280 -18 28 -176 305 -183 320 -4 8 -17 31 -28 50 -12 19 -55 94 -97
165 -112 194 -139 232 -224 313 -63 59 -108 89 -182 120 -83 34 -213 36 -301
4 -115 -42 -239 -149 -323 -280 -24 -37 -47 -67 -52 -67 -5 0 -240 230 -522
511 -282 281 -535 526 -561 544 -270 181 -534 145 -710 -97 -47 -65 -89 -156
-118 -258 -12 -44 -24 -81 -25 -83 -1 -2 -118 64 -261 146 -390 226 -455 263
-489 282 -16 10 -91 53 -165 95 -315 183 -376 216 -448 244 -125 48 -241 62
-349 40z"/>
</g>
</svg>
