<svg xmlns="http://www.w3.org/2000/svg" viewBox="0 0 296.08 179.37"><path fill="#000000" stroke="#fff" stroke-miterlimit="10" stroke-width="3px" d="M254,1.5c7.36.14,14.78.89,15.3,3.47a2.12,2.12,0,0,1-.37,1.47c-3.06,4.78-73.81,36.36-99.32,58.66-28.27,24.7-41.42,73.31-25.32,95.34,20.12,27.54,93.2,23.23,128.57-18.6C302.34,107,302.46,49.72,269.28,5"/><path fill="#000000" stroke="#fff" stroke-miterlimit="10" stroke-width="3px" d="M42.1,1.5c-7.36.14-14.78.89-15.3,3.47a2.12,2.12,0,0,0,.37,1.47C30.23,11.22,101,42.8,126.49,65.1c28.27,24.7,41.42,73.31,25.32,95.34-20.12,27.54-93.2,23.23-128.57-18.6C-6.25,107-6.38,49.72,26.8,5"/></svg>